<?xml version="1.0" encoding="UTF-8" standalone="no"?>
<!-- Created with Inkscape (http://www.inkscape.org/) -->

<svg
   version="1.1"
   id="svg2"
   xml:space="preserve"
   width="133.98132"
   height="133.98132"
   viewBox="0 0 133.98132 133.98132"
   sodipodi:docname="695a65ab0a0afe8929896a0456110134.eps"
   xmlns:inkscape="http://www.inkscape.org/namespaces/inkscape"
   xmlns:sodipodi="http://sodipodi.sourceforge.net/DTD/sodipodi-0.dtd"
   xmlns="http://www.w3.org/2000/svg"
   xmlns:svg="http://www.w3.org/2000/svg"><defs
     id="defs6" /><sodipodi:namedview
     id="namedview4"
     pagecolor="#ffffff"
     bordercolor="#666666"
     borderopacity="1.0"
     inkscape:pageshadow="2"
     inkscape:pageopacity="0.0"
     inkscape:pagecheckerboard="0" /><g
     id="g8"
     inkscape:groupmode="layer"
     inkscape:label="ink_ext_XXXXXX"
     transform="matrix(1.3333333,0,0,-1.3333333,0,133.98133)"><g
       id="g10"
       transform="scale(0.1)"><path
         d="m 141.309,221.773 c 45.14,0 90.285,0 135.421,0 18.055,86.622 32.934,176.418 51.028,262.989 102.191,-1.446 199.246,2.258 300.277,1.965 C 543.801,398.914 454.41,316.246 372.898,225.699 c 16.223,-24.988 33.493,-48.933 49.067,-74.578 54.461,39.442 136.734,-1.328 211.961,0 57.754,1.024 102.785,13.067 149.16,31.395 1.562,35.078 4.148,69.121 7.852,102.062 -53.536,-30.734 -146.125,-26.574 -227.668,-23.555 61.273,63.594 134.085,134.082 200.187,200.196 16.309,16.297 62.234,49.207 66.731,68.683 4.011,17.383 -6.293,48.758 -3.926,64.77 -157.121,-0.113 -314.465,-0.453 -467.102,3.922 7.024,39.429 12.016,80.886 21.586,117.761 98.789,0 197.574,0 296.363,0 6.016,39.77 11.575,80.008 15.696,121.684 -140.754,-1.406 -276.582,2.109 -416.075,1.965 C 228.422,637.086 186.754,427.547 141.309,221.773 Z M 105.98,1004.86 c 2.614,-58.212 101.051,-57.508 104.02,0 20.938,0 41.871,0 62.805,0 3.218,-56.86 101.394,-58.805 104.019,0 21.59,0 43.176,0 64.77,0 8.418,-57.106 111.648,-58.516 119.715,0 22.246,0 44.492,0 66.726,0 2.778,-57.309 101.699,-58.501 104.028,0 20.933,0 41.863,0 62.8,0 2.969,-57.508 101.407,-58.212 104.016,0 35.332,0 70.664,0 105.981,0 0,-35.329 0,-70.653 0,-105.981 -58.172,-2.399 -57.68,-101.352 0,-104.02 0,-20.937 0,-41.871 0,-62.8 -56.723,-3.098 -58.981,-101.582 0,-104.024 0,-21.59 0,-43.176 0,-64.765 -59.008,-9.11 -56.391,-111.731 0,-121.68 0,-21.594 0,-43.184 0,-64.766 -57.704,-1.933 -58.715,-102.394 0,-104.023 0,-20.938 0,-41.867 0,-62.805 -58.051,-2.187 -58.188,-101.922 0,-104.012 0,-35.3317 0,-70.6637 0,-105.984 C 969.531,0 934.211,0 898.879,0 896.785,58.1914 797.051,58.0547 794.863,0 773.926,0 752.996,0 732.063,0 730.566,58.7852 629.855,57.6719 628.035,0 606.453,0 584.863,0 563.27,0 553.672,56.707 450.57,58.9336 441.594,0 420,0 398.414,0 376.824,0 374.934,59.1875 275.199,57.0977 272.805,0 251.871,0 230.938,0 210,0 207.816,58.0547 108.07,58.1914 105.98,0 70.6563,0 35.3281,0 0,0 c 0,35.3281 0,70.6523 0,105.984 58.1953,2.09 58.0547,101.825 0,104.012 0,20.938 0,41.867 0,62.805 58.7188,1.629 57.707,102.09 0,104.023 0,21.582 0,43.172 0,64.766 56.3906,9.949 59.0078,112.57 0,121.68 0,21.589 0,43.175 0,64.765 58.9844,2.442 56.7344,100.926 0,104.024 0,20.929 0,41.863 0,62.8 57.6797,2.668 58.1797,101.621 0,104.02 0,35.328 0,70.652 0,105.981 35.3281,0 70.6563,0 105.98,0"
         style="fill:#ba1d24;fill-opacity:1;fill-rule:evenodd;stroke:none"
         id="path12" /><path
         d="m 276.73,840.004 c 139.493,0.144 275.321,-3.371 416.075,-1.965 -4.121,-41.676 -9.68,-81.914 -15.696,-121.684 -98.789,0 -197.574,0 -296.363,0 -9.57,-36.875 -14.562,-78.332 -21.586,-117.761 152.637,-4.375 309.981,-4.035 467.102,-3.922 -2.367,-16.012 7.937,-47.387 3.926,-64.77 -4.497,-19.476 -50.422,-52.386 -66.731,-68.683 C 697.355,395.105 624.543,324.617 563.27,261.023 c 81.543,-3.019 174.132,-7.179 227.668,23.555 -3.704,-32.941 -6.29,-66.984 -7.852,-102.062 -46.375,-18.328 -91.406,-30.371 -149.16,-31.395 -75.227,-1.328 -157.5,39.442 -211.961,0 -15.574,25.645 -32.844,49.59 -49.067,74.578 81.512,90.547 170.903,173.215 255.137,261.028 -101.031,0.293 -198.086,-3.411 -300.277,-1.965 -18.094,-86.571 -32.973,-176.367 -51.028,-262.989 -45.136,0 -90.281,0 -135.421,0 45.445,205.774 87.113,415.313 135.421,618.231"
         style="fill:#ffffff;fill-opacity:1;fill-rule:evenodd;stroke:none"
         id="path14" /></g></g></svg>
